<svg xmlns="http://www.w3.org/2000/svg" xmlns:xlink="http://www.w3.org/1999/xlink" width="20" height="20" viewBox="0 0 20 20">
    <defs>
        <path id="a" d="M7.154 1.812v1.692c0 1.082-1.654 1.082-1.654 0V1.812c0-1.083 1.654-1.083 1.654 0zm7.28 0v1.692c0 1.082-1.588 1.082-1.588 0V1.812c0-1.083 1.588-1.083 1.588 0zm-11.846.947h2.449v.745c0 1.76 2.58 1.76 2.58 0v-.745h4.7v.745c0 1.76 2.646 1.76 2.646 0v-.745h2.383c.926 0 1.654.745 1.654 1.624v12.993c0 .88-.728 1.624-1.654 1.624H2.588C1.728 19 1 18.256 1 17.376V4.383c0-.88.728-1.624 1.588-1.624zm15.287 3.61H2.125v10.753c0 .419.281.698.633.698h14.414c.422 0 .703-.28.703-.698V6.368zm-8.237 3.884c0 .375-.113.693-.34.956-.227.262-.546.443-.956.541v.025c.484.06.85.207 1.1.44.248.234.372.55.372.946 0 .577-.209 1.026-.627 1.347-.418.322-1.016.482-1.792.482-.651 0-1.228-.108-1.731-.324v-1.078c.232.117.488.213.767.287.279.074.555.11.828.11.419 0 .728-.07.927-.213.2-.142.3-.37.3-.685 0-.281-.115-.481-.345-.599-.23-.117-.596-.176-1.1-.176h-.454v-.972h.463c.465 0 .805-.06 1.02-.183.214-.121.321-.33.321-.625 0-.454-.284-.681-.853-.681-.197 0-.397.033-.6.098-.205.066-.43.18-.68.34l-.586-.873c.547-.393 1.199-.59 1.956-.59.621 0 1.111.125 1.47.377.36.252.54.602.54 1.05zm3.97 4.655h-1.267v-3.47l.012-.57.02-.623c-.21.21-.356.348-.438.414l-.69.554-.61-.763 1.932-1.538h1.041v5.996z"/>
    </defs>
    <g fill="none" fill-rule="evenodd">
        <mask id="b" fill="#fff">
            <use xlink:href="#a"/>
        </mask>
        <use fill="#000" xlink:href="#a"/>
        <g fill="#FFF" fill-rule="nonzero" mask="url(#b)">
            <path d="M0 0h19.938v20.126H0z"/>
        </g>
    </g>
</svg>
